<?xml version="1.0" encoding="UTF-8"?>
<svg id="Capa_1" data-name="Capa 1" xmlns="http://www.w3.org/2000/svg" viewBox="0 0 50 50">
  <defs>
    <style>
      .cls-1 {
        fill: #3a545b;
      }
    </style>
  </defs>
  <path class="cls-1" d="M0,13.27c.27-.74.6-1.37,1.3-1.78.16-.09.77-.37.9-.37h2.98v-3.08c0-.72,1.41-2.03,2.2-2h40.33c1.24.14,2.17,1.16,2.29,2.39v20.22c.05.95-1.14,2.49-2.1,2.49h-2.29v6.98c0,.1-.29.47-.42.56-.28.18-.53.21-.86.13-.8-.22-2.48-1.99-3.32-2.44l-25.04-.05-10.14,7.53c-.47.3-1.44-.1-1.44-.66v-6.88h-2.1s-.64-.2-.73-.24c-.8-.36-1.28-1.11-1.56-1.9V13.27ZM5.18,29.04v-15.97h-2.69c-.22,0-.63.56-.54.83v19.82c.03.17.12.33.25.45.54.48,2.76-.02,3.57.24.19.06.58.54.58.69v5.91l8.93-6.64h23l-4.25-3.22-11.15-.08c-.9-.52-.57-1.73.42-1.87l11.27.03.71.37,8.37,6.33v-6.01c0-.21.54-.63.77-.69.73-.17,3,.15,3.4-.17.07-.06.2-.31.22-.42V8.63c0-.43-.3-.66-.72-.64l-39.89.05-.25.34v20.42c.1.28.31.35.59.39,2.09.25,4.77-.29,6.83,0,1.11.16,1.31,1.61.2,1.94-2.33-.21-5.24.31-7.5,0-.93-.13-1.98-1.17-2.11-2.09Z"/>
  <path class="cls-1" d="M37.18,11.15c5.5-.62,8.32,6.42,5.39,10.57,0,.34,1.95,1.75,2.11,2.39s-.44,1.23-1.08,1.18c-.68-.05-1.74-1.64-2.36-2.04-.85.43-1.57.89-2.54,1.05-7.92,1.28-9.28-12.27-1.52-13.14ZM41.21,20.3c1.58-2.81-.14-7.7-3.83-7.2-5.39.73-4.06,10.6,1.37,9.18.22-.06,1.11-.31.95-.62-.28-.42-1.78-1.57-1.89-1.92-.19-.65.15-1.29.84-1.34.89-.07,1.64,1.35,2.31,1.8.08.06.1.14.24.1Z"/>
  <path class="cls-1" d="M27.52,21h-4.71c-.33.12-1.23,3.28-1.73,3.74-.81.76-2.08-.25-1.53-1.24,1.69-3.44,2.85-7.37,4.55-10.78.39-.78.85-1.14,1.68-.57l4.93,11.47c.38,1.26-1.12,1.96-1.79.81l-1.41-3.43ZM26.66,19.03l-1.47-3.61-1.56,3.61h3.03Z"/>
  <path class="cls-1" d="M12.79,13.86v3.12h5.42c.39,0,.84.64.83,1.03,0,.32-.43.93-.74.93h-5.52v5.52c0,.83-1.76,1.29-1.95.09l.07-12.13c.18-.31.4-.47.75-.52,2.04-.24,4.55.18,6.64,0,1.13.21.75,1.95-.09,1.95h-5.42Z"/>
  <path class="cls-1" d="M18.82,29.21c1.21-.12,1.46,1.68.44,1.91-1.61.37-1.66-1.8-.44-1.91Z"/>
</svg>