<?xml version="1.0" encoding="UTF-8"?>
<svg id="Capa_1" data-name="Capa 1" xmlns="http://www.w3.org/2000/svg" viewBox="0 0 50 50">
  <defs>
    <style>
      .cls-1 {
        fill: #3a545b;
      }
    </style>
  </defs>
  <path class="cls-1" d="M31.84,0c2.09.29,3.02,1.85,4.34,3.22,1.23,1.27,4.05,3.66,4.05,5.5v7.55h3.95c2.69,0,5.44,2.67,5.7,5.31v23.08c-.44,2.84-2.76,4.94-5.6,5.23-4.83-.27-10.04.35-14.82,0-3.47-.26-5.87-3.21-5.75-6.63h-.91c-.11.66-.36,1.19-.76,1.71,1.51,1.77.53,4.33-1.83,4.53-4.51-.26-9.38.33-13.85,0-1.97-.15-3.86-1.2-5-2.8-2.92-4.1-.31-10.13,4.76-10.46-.19-.85.1-1.76.67-2.4-1-1.24-1.02-2.96.3-3.98.16-.12.89-.53,1.03-.53h1.51V4.92c-.1-2.28,1.69-4.64,4-4.92h18.23ZM32.13,1.56H13.86c-.95,0-2.58,1.42-2.58,2.39v25.38h9.41s.53.21.62.25c1.54.76,1.96,2.97.7,4.19.99,1.16.98,2.61.02,3.79,1,1.12.95,2.57,0,3.7,0,.04.29.44.31.44h1.41v-20.12c0-2.48,3.28-5.31,5.7-5.31h9.21l-.1-7.79h-5.9c-.07,0-.54-.39-.54-.44V1.56ZM37.49,6.92l-3.8-4.09v4.09h3.8ZM47.11,19.13c-.57-.58-1.57-1.12-2.38-1.28-4.77.01-9.95-.43-14.7-.13-2.63.17-4.49,1.66-4.82,4.34v22.03c.21,2.38,2.05,4.16,4.43,4.34,4.65.35,9.73-.27,14.43,0,2.29-.18,4.06-1.86,4.34-4.14v-22.42c-.08-.95-.64-2.07-1.3-2.74ZM20.89,32.7c.6-.64.22-1.77-.7-1.82h-11.6c-1.34.16-1.18,2.01,0,2.15h11.6c.21-.01.56-.18.7-.33ZM7.67,36.15h2.49c.62,0,1.56.51,2.14.59,2.43.3,5.49-.23,7.99,0,1.14-.18,1.21-1.75.14-2.07-3.74.08-7.82-.33-11.54-.07-1.02.07-1.32.57-1.21,1.56ZM9.01,37.64c-6.78.64-5.95,10.84.85,10.39,6.8-.44,6.07-11.05-.85-10.39ZM4.74,38.1c-.81.22-1.44.83-1.95,1.46.25-.03.67.08.88-.05.2-.12.75-1.21,1.07-1.41ZM20.29,38.29h-5.9c.51.65,1.02,1.33,1.28,2.13,1.45-.07,3.09.15,4.52.02s1.16-1.96.09-2.15ZM2.99,41.02l-1.08.04-.29,1.13,1.18-.04.19-1.13ZM16.05,44.23h4.14c.44,0,1.01-.67,1.01-1.12,0-.53-.6-1.12-1.11-1.12h-3.95l-.1,2.24ZM3.09,44.92l-.29-1.22-1.08-.04c-.04.43.09.85.29,1.22l1.08.04ZM13.81,47.94h6.48s.32-.15.39-.2c.86-.57.58-1.86-.48-1.95s-3.34-.11-4.4,0c-.62.06-.71.7-1.07,1.17-.28.35-.67.61-.92.98ZM4.74,47.55c-.6-.52-.7-1.41-1.66-1.17.4.55,1,.98,1.66,1.17Z"/>
  <path class="cls-1" d="M19.24,16.49c.23.23.23.73.23,1.04.66.13,2.1.32,1.8,1.28s-1.27.08-1.87,0c-1.04-.13-2.17.21-1.87,1.48.26,1.11,3.11.98,3.8,2.83.59,1.57-.06,3.6-1.86,3.88.17,1.7-1.67,1.69-1.48,0-.81.04-2.79-1.14-1.8-2.05.55-.5.72.11,1.03.34,1.36,1.01,3.31.58,2.9-1.43-.28-1.37-3.27-1.12-3.85-2.97-.46-1.47.23-2.85,1.71-3.25-.21-.77.56-1.82,1.26-1.13Z"/>
  <path class="cls-1" d="M21.29,13.66l12.36-.02c1.26.08,1.27,1.48,0,1.56h-12.18c-1.11-.13-1.26-1.25-.17-1.54Z"/>
  <path class="cls-1" d="M15.83,10.06l13.24-.02c.99.11.96,1.36,0,1.47h-13.06c-.87-.08-1.01-1.16-.17-1.44Z"/>
  <path class="cls-1" d="M16.02,13.66c.52-.09,2.48-.1,2.85.22.3.26.28.87-.06,1.11-.4.28-2.46.29-2.94.14-.87-.27-.73-1.31.15-1.47Z"/>
  <path class="cls-1" d="M31.81,10.06c.31-.07,1.99-.07,2.27.02.7.22.62,1.29-.16,1.41-.34.05-1.9.05-2.19-.04-.67-.21-.62-1.24.07-1.4Z"/>
  <path class="cls-1" d="M44.48,25.3c.13-.13.21-.32.23-.5.07-.58.08-2.55,0-3.12-.05-.34-.33-.61-.65-.72l-14.4-.02c-.35.05-.68.38-.73.73-.09.56-.08,2.44,0,3.02.19,1.58,2.91.65,3.93.94.45.13.63.92.22,1.25-.34.28-2.57.24-3.13.2-1.01-.08-2.03-.62-2.36-1.64-.2-.63-.21-3.34-.1-4.04.13-.84,1.03-1.8,1.89-1.91h14.98c2.15.51,2.06,3.15,1.93,4.92-.11,1.45-.87,2.52-2.39,2.67-2.52.25-5.43-.19-8,0-.93,0-1.29-1.21-.28-1.46,2.57-.19,5.46.23,7.99,0,.3-.03.67-.11.89-.33Z"/>
  <path class="cls-1" d="M42.54,34.91c1.36-.17,3.32-.15,3.72,1.49l-.02,8.74c-.39,1.63-2.11,1.77-3.53,1.63-.96-.1-1.86-.83-1.99-1.81-.35-2.54.22-5.83.01-8.44.24-.91.86-1.49,1.81-1.6ZM42.17,36.68v8.09c0,.77,2.63.72,2.63.1v-8.18c0-.07-.24-.22-.34-.24-.25-.05-1.92-.03-2.09.05-.04.02-.19.16-.2.19Z"/>
  <path class="cls-1" d="M35.52,34.91c.67-.1,2.61-.1,3.21.15.46.19.83.76.9,1.25.08.58.08,2.12,0,2.72-.09.81-.61,1.39-1.42,1.5-.63.09-2.89.08-3.39-.2-1.02-.57-.93-2.51-.84-3.55s.46-1.72,1.54-1.87ZM38.18,36.44h-2.63v2.63h2.49l.15-.15v-2.48Z"/>
  <path class="cls-1" d="M39.21,41.64c.57.62.5,2.68.43,3.53s-.55,1.48-1.43,1.6c-.6.08-2.11.07-2.72,0-.48-.05-.95-.34-1.22-.73-.42-.61-.4-3.21-.12-3.92.48-1.22,2.49-1.08,3.58-1.01.52.04,1.11.13,1.47.52ZM38.18,42.68h-2.63v2.63h2.49l.15-.15v-2.48Z"/>
  <path class="cls-1" d="M28.89,34.91c.62-.09,2.06-.09,2.68,0,.76.11,1.35.59,1.44,1.39.07.65.07,2.17,0,2.83-.09.82-.71,1.32-1.51,1.41-.64.07-2.79.07-3.3-.21-.35-.19-.7-.71-.75-1.11-.07-.56-.08-2.68.02-3.2.13-.62.82-1.03,1.42-1.12ZM31.55,36.44h-2.63v2.63h2.63v-2.63Z"/>
  <path class="cls-1" d="M28.99,41.14c.71-.09,2.22-.1,2.89.08s1.06.64,1.13,1.3.08,2.29,0,2.91c-.06.48-.38.92-.82,1.13-.53.26-2.76.27-3.41.18s-1.25-.66-1.33-1.3c-.07-.6-.07-2.61.05-3.17.15-.74.81-1.05,1.49-1.14ZM31.55,42.68h-2.63v2.63h2.49l.15-.15v-2.48Z"/>
  <path class="cls-1" d="M35.32,28.38c.56-.1,2.42-.1,2.99-.01.75.11,1.24.78,1.32,1.5.07.61.07,2.02,0,2.63-.07.67-.62,1.33-1.31,1.41-.64.08-2.39.08-3.03,0-1.54-.19-1.4-2.51-1.32-3.66.06-.89.34-1.7,1.34-1.87ZM38.18,32.45v-2.48l-.15-.15h-2.49v2.63h2.63Z"/>
  <path class="cls-1" d="M45.84,28.78c.09.08.29.39.33.49.15.41.16,3,.08,3.51-.06.41-.5.92-.9,1.05-.43.14-2.9.14-3.43.07-.75-.11-1.17-.78-1.23-1.5-.06-.64-.08-2.74.18-3.24s.78-.76,1.33-.81c.64-.06,2.11-.07,2.72.01.27.04.7.23.9.42ZM44.8,29.81h-2.63v2.63h2.63v-2.63Z"/>
  <path class="cls-1" d="M28.7,28.38c.58-.1,2.4-.1,2.99-.01.71.1,1.25.69,1.32,1.4.07.62.08,2.22,0,2.83-.06.5-.44,1.06-.92,1.22s-2.84.16-3.42.09c-.5-.06-.96-.45-1.12-.92-.15-.43-.17-2.89-.09-3.41s.7-1.11,1.24-1.2ZM31.55,29.81h-2.63v2.63h2.63v-2.63Z"/>
  <path class="cls-1" d="M9.14,41.13c-.36.69.7.81,1.19,1.07,1.13.62,1.56,1.92.83,3.04-.28.43-.88.59-.94.67-.17.25,0,.84-.75.84-.69,0-.58-.55-.83-.81-.16-.16-.65-.27-.87-.5-.63-.64-.19-1.65.68-1.36.43.14.74.92,1.46.4.54-1.27-1.38-1.07-1.99-1.91-.51-.68-.44-1.85.19-2.43.18-.17.59-.28.62-.31.1-.12-.04-.95.75-.95.64,0,.64.66.83.82.24.2,1.03.2,1.07.89.08,1.23-1.63.38-2.23.54Z"/>
</svg>