<?xml version="1.0" encoding="utf-8"?>
<!-- Generator: Adobe Illustrator 28.0.0, SVG Export Plug-In . SVG Version: 6.00 Build 0)  -->
<svg version="1.1" id="Layer_1" xmlns="http://www.w3.org/2000/svg" xmlns:xlink="http://www.w3.org/1999/xlink" x="0px" y="0px"
	 viewBox="0 0 145.2 54.5" style="enable-background:new 0 0 145.2 54.5;" xml:space="preserve">
<style type="text/css">
	.st0{fill-rule:evenodd;clip-rule:evenodd;fill:#055B76;}
	.st1{fill-rule:evenodd;clip-rule:evenodd;fill:#FFFFFF;}
</style>
<g>
	<g transform="scale(3.35329 6.34921)">
		<g transform="matrix(.57784628566 0 0 .305186175 35.209 21.8866)">
			<path class="st0" d="M-57.2-43.6c-2,0-3.7-1.7-3.7-3.7V-68c0-2,1.7-3.7,3.7-3.7h67.5c2,0,3.7,1.7,3.7,3.7v20.7
				c0,2-1.7,3.7-3.7,3.7L-57.2-43.6L-57.2-43.6z"/>
			<path class="st1" d="M-57.2-71.1c-1.7,0-3.1,1.4-3.1,3.1v20.7c0,1.7,1.4,3.1,3.1,3.1h21.7v-27H-57.2z M-6.1-52.4l0.5-0.7
				c0.3,0.3,0.8,0.5,1.3,0.5c0.5,0,0.7-0.2,0.7-0.4c0-0.3-0.4-0.4-0.8-0.5C-5.2-53.5-6-53.7-6-54.6c0-0.7,0.6-1.2,1.5-1.2
				c0.6,0,1.2,0.2,1.6,0.6l-0.5,0.6c-0.3-0.3-0.7-0.4-1.2-0.4c-0.4,0-0.6,0.2-0.6,0.4c0,0.3,0.4,0.3,0.8,0.4
				c0.7,0.2,1.5,0.4,1.5,1.3c0,0.7-0.5,1.3-1.6,1.3C-5.2-51.7-5.8-52-6.1-52.4L-6.1-52.4z M-9.8-52.4l0.5-0.7
				c0.3,0.3,0.8,0.5,1.3,0.5c0.5,0,0.7-0.2,0.7-0.4c0-0.3-0.4-0.4-0.8-0.5c-0.7-0.1-1.5-0.3-1.5-1.2c0-0.7,0.6-1.2,1.5-1.2
				c0.6,0,1.2,0.2,1.6,0.6l-0.5,0.6c-0.3-0.3-0.7-0.4-1.2-0.4c-0.4,0-0.6,0.2-0.6,0.4c0,0.3,0.4,0.3,0.8,0.4
				c0.7,0.2,1.5,0.4,1.5,1.3c0,0.7-0.5,1.3-1.6,1.3C-8.9-51.7-9.4-52-9.8-52.4L-9.8-52.4z M-23.1-52.4l0.5-0.7
				c0.3,0.3,0.8,0.5,1.3,0.5c0.5,0,0.7-0.2,0.7-0.4c0-0.3-0.4-0.4-0.8-0.5c-0.7-0.1-1.5-0.3-1.5-1.2c0-0.7,0.6-1.2,1.5-1.2
				c0.6,0,1.2,0.2,1.6,0.6l-0.5,0.6c-0.3-0.3-0.7-0.4-1.2-0.4c-0.4,0-0.6,0.2-0.6,0.4c0,0.3,0.4,0.3,0.8,0.4
				c0.7,0.2,1.5,0.4,1.5,1.3c0,0.7-0.5,1.3-1.6,1.3C-22.2-51.7-22.7-52-23.1-52.4z M-27.3-53.4v-2.4h0.9v2.4c0,0.6,0.3,0.9,0.9,0.9
				s0.9-0.4,0.9-0.9v-2.4h0.9v2.4c0,1-0.6,1.7-1.8,1.7C-26.7-51.7-27.3-52.4-27.3-53.4L-27.3-53.4z M-14.7-51.8l-1.9-2.6v2.6h-0.9
				v-4h0.9l1.9,2.5v-2.5h0.9v4L-14.7-51.8L-14.7-51.8z M-19.2-51.8v-4h0.9v4L-19.2-51.8L-19.2-51.8z M-13.1-51.8v-4h2.8v0.8h-2v0.8
				h1.9v0.8h-1.9v0.9h2v0.8L-13.1-51.8z M-31.3-51.8v-4h2.1c0.8,0,1.2,0.5,1.2,1c0,0.5-0.3,0.8-0.7,0.9c0.4,0.1,0.8,0.5,0.8,1
				c0,0.6-0.4,1.1-1.2,1.1L-31.3-51.8z M-28.8-53c0-0.3-0.2-0.5-0.5-0.5h-1.1v0.9h1.1C-29-52.5-28.8-52.7-28.8-53z M-28.9-54.6
				L-28.9-54.6c0-0.2-0.2-0.4-0.4-0.4c0,0,0,0,0,0h-1.1v0.9h1.1C-29.1-54.2-28.9-54.4-28.9-54.6L-28.9-54.6z M-27.3-60.7
				c0-1.2,0.9-2.1,2.1-2.1c0.7,0,1.4,0.4,1.7,1l-0.7,0.4c-0.2-0.4-0.5-0.6-0.9-0.6c-0.7,0-1.3,0.6-1.3,1.3c0,0.8,0.5,1.3,1.3,1.3
				c0.4,0,0.8-0.2,0.9-0.6l0.7,0.4c-0.3,0.5-0.8,1-1.7,1C-26.4-58.6-27.3-59.4-27.3-60.7L-27.3-60.7z M-23.2-60.7
				c0-1.2,0.9-2.1,2.1-2.1c0.7,0,1.4,0.4,1.7,1l-0.7,0.4c-0.2-0.4-0.5-0.6-0.9-0.6c-0.7,0-1.3,0.6-1.3,1.3c0,0.8,0.5,1.3,1.3,1.3
				c0.4,0,0.8-0.2,0.9-0.6l0.7,0.4c-0.3,0.5-0.8,1-1.7,1C-22.2-58.6-23.2-59.4-23.2-60.7z M-16.5-58.7l-0.8-1.4H-18v1.4h-0.9v-4h1.9
				c0.8,0,1.3,0.5,1.3,1.3c0,0.7-0.4,1.1-0.9,1.2l0.9,1.5L-16.5-58.7z M-28.5-58.7l-0.2-0.7h-1.7l-0.3,0.7h-1l1.6-4h1.1l1.5,4H-28.5
				z M1.8-58.7v-4h1.6c1.3,0,2.1,0.8,2.1,2c0,1.2-0.9,2-2.1,2H1.8z M-1.8-58.7v-4h2.8v0.8h-2v0.8H1v0.8h-1.9v0.9h2v0.8H-1.8z
				 M-7-58.7v-4h0.9v4H-7z M-11.4-58.7v-4h1.6c1.3,0,2.1,0.8,2.1,2c0,1.2-0.9,2-2.1,2H-11.4z M-14.9-58.7v-4h2.8v0.8h-2v0.8h1.9v0.8
				h-1.9v0.9h2v0.8H-14.9z M-4.4-58.7v-3.3h-1.2v-0.8h3.2v0.8h-1.2v3.3H-4.4z M4.6-60.7c0-0.7-0.4-1.3-1.3-1.3H2.6v2.5h0.7
				C4.2-59.4,4.6-60,4.6-60.7L4.6-60.7z M-8.5-60.7c0-0.7-0.4-1.3-1.3-1.3h-0.7v2.5h0.7C-9-59.4-8.5-60-8.5-60.7L-8.5-60.7z
				 M-29.6-61.8l-0.6,1.7h1.2L-29.6-61.8z M-16.5-61.4c0-0.3-0.3-0.5-0.6-0.5H-18v1.1h0.9C-16.7-60.9-16.5-61.1-16.5-61.4z"/>
			<path class="st0" d="M-52-48.5c0.6,0.3,0.8,0.4,1,1.1c0.2,1.2-1,1.7-2,1.7h-2.5v-5.4h2.5c0.9,0,1.7,0.4,1.7,1.4
				C-51.3-49.2-51.5-48.8-52-48.5z M-46.9-48.5c0.6,0.3,0.8,0.4,1,1.1c0.2,1.2-1,1.7-2,1.7h-2.5v-5.4h2.5c0.9,0,1.7,0.4,1.7,1.4
				C-46.2-49.2-46.5-48.8-46.9-48.5z M-40.9-47.4c-0.1-0.7-0.4-0.9-1-1.1c0.4-0.3,0.7-0.6,0.7-1.1c0-1-0.8-1.4-1.7-1.4h-2.5v5.4h2.5
				C-41.9-45.7-40.7-46.2-40.9-47.4L-40.9-47.4z M-40.2-47L-40.2-47c0-0.7,0.6-1.3,1.2-1.3c0.7,0,1.2,0.6,1.2,1.2v0
				c0,0.7-0.6,1.2-1.2,1.2C-39.7-45.8-40.2-46.3-40.2-47z M-37.9-47L-37.9-47c0-0.6-0.5-1.1-1.1-1.1c-0.6,0-1.1,0.5-1.1,1.1v0
				c0,0.6,0.5,1.1,1.1,1.1C-38.4-45.9-37.9-46.4-37.9-47z M-39.5-47.7h0.6c0.1,0,0.3,0,0.4,0.1c0.1,0.1,0.1,0.2,0.1,0.2v0
				c0,0.2-0.1,0.3-0.3,0.4l0.4,0.5h-0.2l-0.4-0.5h-0.3v0.5h-0.2L-39.5-47.7z M-52.9-46.7h-1.5v-1.2h1.5
				C-51.8-47.9-51.9-46.7-52.9-46.7z M-47.9-46.7h-1.5v-1.2h1.5C-46.8-47.9-46.9-46.7-47.9-46.7L-47.9-46.7z M-44.3-47.9v1.2h1.5
				c1,0,1.1-1.2,0-1.2H-44.3z M-38.9-47c0.2,0,0.3-0.1,0.3-0.2v0c0-0.1-0.1-0.2-0.3-0.2h-0.4v0.5H-38.9z M-52-48.5L-52-48.5
				L-52-48.5L-52-48.5z M-46.9-48.5L-46.9-48.5L-46.9-48.5L-46.9-48.5z M-54.4-50.1h1.3c0.8,0,0.9,1.1,0.1,1.1h-1.4V-50.1z
				 M-44.3-50.1h1.3c0.8,0,0.9,1.1,0.1,1.1h-1.4L-44.3-50.1z M-49.4-50.1h1.3c0.8,0,0.9,1.1,0.1,1.1h-1.4L-49.4-50.1z M-53.1-53.5
				h2.5l0.4,1.5h4l0.4-1.5h2.5l-0.3-1.1h-9.1L-53.1-53.5z M-50.1-62.3l-1.2,1.6c-0.6,0.8-0.4,2.3,0.4,2.9l2.2,1.6
				c0.4,0.3,0.4,0.5,0.2,0.8l0.3,0.2l1.1-1.5c0.7-1,0.6-2.3-0.4-3l-2.2-1.6c-0.3-0.2-0.3-0.5-0.1-0.8L-50.1-62.3L-50.1-62.3z
				 M-48.2-69.6l-1.8,2.6c-0.9,1.2-0.6,3.2,0.6,4.1l3,2.2c0.6,0.5,0.7,1.6,0.2,2.2l0.3,0.2l2.1-3c0.9-1.3,0.9-3.3-0.6-4.4l-3.3-2.4
				c-0.5-0.3-0.7-0.9-0.3-1.4L-48.2-69.6z"/>
		</g>
	</g>
</g>
</svg>
