<?xml version="1.0" encoding="UTF-8"?>
<!-- Icono del submenu "Project Estimator". Dibujado para casar con los 11
     iconos del menu (1_1.svg a 12.svg): viewBox 0 0 50 50 y relleno solido en
     #3a545b, el token primary. A diferencia de En.svg y Sp.svg, este SI trae su
     color: sin el bloque style todos los paths heredarian negro.
     OJO: en un comentario XML no puede aparecer un guion doble. -->
<svg id="Capa_1" data-name="Capa 1" xmlns="http://www.w3.org/2000/svg" viewBox="0 0 50 50">
  <defs>
    <style>
      .cls-1 {
        fill: #3a545b;
      }
    </style>
  </defs>
  <path class="cls-1" fill-rule="evenodd" d="M13,1h24c2.76,0,5,2.24,5,5v38c0,2.76-2.24,5-5,5H13c-2.76,0-5-2.24-5-5V6c0-2.76,2.24-5,5-5ZM13,4c-1.1,0-2,.9-2,2v38c0,1.1.9,2,2,2h24c1.1,0,2-.9,2-2V6c0-1.1-.9-2-2-2H13Z"/>
  <rect class="cls-1" x="14" y="8.5" width="22" height="8" rx="1.5" ry="1.5"/>
  <circle class="cls-1" cx="17.5" cy="24.5" r="2.6"/>
  <circle class="cls-1" cx="25" cy="24.5" r="2.6"/>
  <circle class="cls-1" cx="32.5" cy="24.5" r="2.6"/>
  <circle class="cls-1" cx="17.5" cy="32.5" r="2.6"/>
  <circle class="cls-1" cx="25" cy="32.5" r="2.6"/>
  <circle class="cls-1" cx="32.5" cy="32.5" r="2.6"/>
  <circle class="cls-1" cx="17.5" cy="40.5" r="2.6"/>
  <circle class="cls-1" cx="25" cy="40.5" r="2.6"/>
  <rect class="cls-1" x="29.9" y="37.9" width="5.2" height="5.2" rx="1.6" ry="1.6"/>
</svg>
